<svg xmlns="http://www.w3.org/2000/svg" width="512" height="512" viewBox="0 0 512 512" version="1.1"><path d="M 209.890 277.250 C 209.830 277.938, 209.658 279.967, 209.507 281.760 L 209.233 285.020 211.367 285.484 C 215.357 286.352, 236.901 290, 238.036 290 L 239.165 290 236.148 284.774 L 233.131 279.548 222.815 277.848 C 209.973 275.732, 210.023 275.735, 209.890 277.250 M 272.537 290.124 C 271.141 292.232, 270 294.316, 270 294.755 C 270 295.195, 280.462 297.265, 293.250 299.356 C 319.499 303.649, 320.946 303.867, 319.359 303.302 C 318.290 302.921, 318.115 301.757, 318.063 294.678 C 318.052 293.126, 317.654 292.096, 317.180 292.389 C 316.501 292.808, 297.767 290.120, 277.287 286.665 L 275.073 286.291 272.537 290.124 M 200.869 328.342 C 201.481 329.080, 201.700 329.967, 201.354 330.312 C 201.009 330.658, 200.607 332.445, 200.461 334.283 L 200.196 337.626 265.598 356.479 C 301.570 366.848, 331.252 375.082, 331.558 374.776 C 332.094 374.239, 329.591 359.207, 328.859 358.574 C 328.213 358.014, 202.942 327, 201.327 327 L 199.755 327 200.869 328.342 M 259.305 415.872 C 218.497 425.049, 184.816 432.851, 184.457 433.210 C 184.098 433.569, 183.061 433.626, 182.152 433.337 L 180.500 432.811 181.800 433.746 C 182.515 434.260, 183.082 435.539, 183.059 436.590 C 182.995 439.584, 182.245 444.351, 181.576 446.015 L 180.966 447.530 259.639 431.776 C 302.908 423.112, 338.517 415.817, 338.769 415.565 C 339.020 415.313, 338.613 411.601, 337.863 407.316 L 336.500 399.525 335 399.356 C 334.175 399.263, 300.112 406.695, 259.305 415.872 M 440 432.500 C 437.571 434.975, 435.809 437, 436.084 437 C 436.359 437, 438.571 434.975, 441 432.500 C 443.429 430.025, 445.191 428, 444.916 428 C 444.641 428, 442.429 430.025, 440 432.500 M 175.556 474.565 L 176.612 475.037 176.260 478.015 C 176.066 479.653, 175.682 482.344, 175.407 483.994 C 175.132 485.644, 174.724 488.233, 174.500 489.747 C 174.276 491.261, 173.816 493.431, 173.477 494.570 L 172.861 496.640 174.180 497.697 C 177.653 500.478, 205.367 507.045, 224.379 509.591 L 236.500 511.214 257.500 511.257 L 278.500 511.301 287.500 510.051 C 292.450 509.364, 297.063 508.490, 297.751 508.110 L 299.002 507.419 239.419 491.129 C 187.105 476.825, 171.636 472.813, 175.556 474.565" stroke="none" fill="#e7e9ef" fill-rule="evenodd"/><path d="M 244.500 103.163 C 241.750 103.680, 235.811 105.881, 231.302 108.055 L 223.105 112.007 216.752 118.359 L 210.399 124.712 206.649 131.849 L 202.899 138.985 201.467 145.743 C 198.550 159.506, 200.262 171.983, 206.769 184.397 L 210.492 191.500 216.496 197.504 L 222.500 203.508 229.603 207.231 C 246.711 216.199, 265.289 216.199, 282.397 207.231 L 289.500 203.508 295.504 197.504 L 301.508 191.500 305.231 184.397 C 311.738 171.983, 313.450 159.506, 310.533 145.743 L 309.101 138.985 305.351 131.849 L 301.601 124.712 295.248 118.359 L 288.895 112.007 280.698 108.072 C 268.709 102.318, 257.259 100.765, 244.500 103.163 M 247.353 135.628 C 242.703 137.276, 236.881 142.470, 234.271 147.297 L 232.540 150.500 232.540 158 L 232.540 165.500 234.241 168.644 C 236.703 173.195, 241.852 178.028, 246.478 180.129 L 250.500 181.956 256 181.956 L 261.500 181.956 265.522 180.129 C 270.148 178.028, 275.297 173.195, 277.759 168.644 L 279.460 165.500 279.460 158 L 279.460 150.500 277.729 147.297 C 271.857 136.435, 259.004 131.498, 247.353 135.628 M 161 283.025 C 135.975 286.785, 111.803 290.387, 107.284 291.029 L 99.068 292.197 71.941 345.134 L 44.813 398.071 45.396 399.589 C 46.182 401.639, 59.335 418.938, 60.133 418.973 C 60.482 418.988, 60.976 418.212, 61.233 417.250 L 61.698 415.500 130.720 376.705 L 199.741 337.910 200.374 333.291 C 200.722 330.751, 200.816 328.482, 200.583 328.249 C 200.350 328.016, 171.744 342.311, 137.016 360.016 C 102.287 377.720, 73.679 392.012, 73.441 391.775 C 72.975 391.308, 112.664 302.013, 113.916 300.713 C 114.332 300.281, 135.713 296.602, 161.429 292.538 C 187.145 288.474, 208.305 285.003, 208.453 284.824 C 208.601 284.646, 209.015 282.587, 209.373 280.250 L 210.024 276 208.262 276.095 C 207.293 276.147, 186.025 279.265, 161 283.025 M 365.642 284.345 L 317.785 292.500 318.361 297.386 C 318.678 300.073, 319.187 302.520, 319.490 302.824 C 319.972 303.305, 334.617 300.833, 391.692 290.636 L 404.884 288.279 408.900 296.648 C 411.109 301.252, 413.048 305.698, 413.208 306.528 L 413.500 308.039 371.500 332.960 L 329.500 357.881 329.801 361.191 C 329.966 363.011, 330.641 366.854, 331.301 369.732 L 332.500 374.964 375.373 347.482 C 398.953 332.367, 418.585 320, 418.999 320 C 419.414 320, 428.921 339.783, 440.127 363.962 L 460.500 407.924 461.604 406.712 C 462.212 406.045, 465.517 401.348, 468.948 396.272 L 475.188 387.045 445.949 331.522 L 416.710 276 415.105 276.095 C 414.222 276.148, 391.964 279.860, 365.642 284.345 M 337.810 407.237 C 338.617 411.782, 339.357 415.604, 339.454 415.732 C 339.551 415.860, 361.201 420.673, 387.565 426.428 L 435.500 436.893 441.970 430.467 L 448.441 424.041 447.470 423.178 C 446.937 422.703, 422.425 417.270, 393 411.105 C 363.575 404.939, 338.789 399.687, 337.921 399.434 L 336.342 398.974 337.810 407.237 M 141.788 445.255 L 100.076 457.387 101.082 458.599 C 101.635 459.266, 105.392 462.095, 109.429 464.886 L 116.770 469.961 148.635 458.822 C 166.161 452.696, 180.678 447.539, 180.896 447.362 C 181.224 447.097, 183.914 432.868, 183.600 433.062 C 183.545 433.096, 164.730 438.583, 141.788 445.255 M 157.126 479.369 L 140.753 483.551 149.626 487.727 C 159.457 492.354, 172.095 497.238, 172.692 496.641 C 172.904 496.429, 173.892 491.473, 174.888 485.628 L 176.699 475 175.099 475.094 C 174.220 475.145, 166.132 477.069, 157.126 479.369" stroke="none" fill="#fefeff" fill-rule="evenodd"/><path d="" stroke="none" fill="#000000" fill-rule="evenodd"/><path d="M 376 347.515 C 352.625 362.576, 332.600 374.929, 331.500 374.965 L 329.500 375.031 330.750 375.825 L 332.001 376.619 333.702 387.585 L 335.404 398.551 379.452 407.830 C 403.678 412.933, 429.455 418.380, 436.733 419.935 L 449.967 422.762 455.370 416.074 L 460.774 409.387 440.137 364.722 C 428.787 340.157, 419.275 320.074, 419 320.094 C 418.725 320.113, 399.375 332.453, 376 347.515 M 131.890 376.363 C 94.705 397.351, 63.591 415.095, 62.748 415.794 C 61.906 416.493, 60.986 417.947, 60.704 419.025 L 60.192 420.984 71.774 433.073 C 82.526 444.296, 96.747 456.961, 98.671 457.029 C 99.275 457.050, 183.820 432.986, 184.623 432.565 C 185.124 432.302, 200.575 338.022, 200.104 338.102 C 199.772 338.158, 169.076 355.375, 131.890 376.363 M 338.974 416.878 C 338.900 418.629, 352.438 491.606, 352.952 492.227 C 353.795 493.245, 381.662 479.328, 392.412 472.520 C 404.848 464.644, 418.314 454.317, 428.045 445.192 L 436.315 437.439 397.907 429.072 C 376.783 424.471, 354.887 419.705, 349.250 418.481 C 343.613 417.257, 338.988 416.535, 338.974 416.878 M 166.500 452.874 C 157.700 456.021, 142.909 461.232, 133.631 464.454 L 116.763 470.313 119.131 472.116 C 120.434 473.108, 125.482 476.142, 130.348 478.857 L 139.196 483.795 157.783 478.953 C 168.005 476.289, 176.688 474.307, 177.078 474.548 C 177.965 475.097, 178.410 473.191, 180.586 459.500 C 181.547 453.450, 182.822 448.169, 183.417 447.765 L 184.500 447.031 183.500 447.091 C 182.950 447.125, 175.300 449.727, 166.500 452.874 M 245.250 511.689 C 246.213 511.941, 247.787 511.941, 248.750 511.689 C 249.713 511.438, 248.925 511.232, 247 511.232 C 245.075 511.232, 244.287 511.438, 245.250 511.689 M 270.750 511.706 C 271.988 511.944, 274.012 511.944, 275.250 511.706 C 276.488 511.467, 275.475 511.272, 273 511.272 C 270.525 511.272, 269.512 511.467, 270.750 511.706" stroke="none" fill="#84dafe" fill-rule="evenodd"/><path d="M 200.527 339.286 C 199.674 341.995, 184.932 431.266, 185.280 431.614 C 185.694 432.027, 334.227 399.021, 334.944 398.356 C 335.407 397.927, 332.227 376.894, 331.606 376.273 C 331.411 376.078, 303.183 367.826, 268.876 357.935 C 234.569 348.043, 205.242 339.528, 203.705 339.011 L 200.909 338.072 200.527 339.286 M 260.753 431.984 C 217.993 440.606, 182.851 447.849, 182.659 448.080 C 182.468 448.311, 181.396 454.125, 180.277 461 L 178.242 473.500 179.073 474 C 179.530 474.275, 207.118 481.918, 240.380 490.985 L 300.856 507.471 299.678 508.301 L 298.500 509.131 300.598 508.546 C 301.751 508.225, 306.026 507.319, 310.098 506.534 C 319.675 504.686, 333.245 500.814, 344.220 496.798 L 352.939 493.607 352.484 491.553 C 352.234 490.424, 349.082 473.300, 345.480 453.500 C 341.879 433.700, 338.835 417.232, 338.716 416.904 C 338.597 416.576, 303.514 423.362, 260.753 431.984 M 74 436.500 C 77.543 440.075, 80.667 443, 80.942 443 C 81.217 443, 78.543 440.075, 75 436.500 C 71.457 432.925, 68.333 430, 68.058 430 C 67.783 430, 70.457 432.925, 74 436.500 M 431.462 442.250 L 426.500 447.500 431.750 442.538 C 434.637 439.808, 437 437.446, 437 437.288 C 437 436.541, 436.074 437.372, 431.462 442.250 M 237.264 511.718 C 238.784 511.947, 241.034 511.941, 242.264 511.704 C 243.494 511.467, 242.250 511.279, 239.500 511.286 L 234.500 511.300 237.264 511.718" stroke="none" fill="#54c1ea" fill-rule="evenodd"/><path d="M 242.763 84.965 C 214.995 90.041, 192.215 110.203, 183.408 137.500 L 180.827 145.500 180.299 155 L 179.771 164.500 181.862 173.233 C 187.088 195.049, 201.883 226.582, 226.795 269 C 238.839 289.508, 255.024 315, 256 315 C 256.454 315, 261.294 307.913, 266.757 299.250 C 301.300 244.473, 323.715 200, 330.006 173.759 L 331.986 165.500 331.976 158.500 C 331.928 126.384, 309.588 97.079, 277.500 87.037 L 270.500 84.847 259 84.473 C 252.675 84.267, 245.369 84.488, 242.763 84.965 M 241.112 103.581 C 238.149 104.377, 232.974 106.472, 229.612 108.234 L 223.500 111.439 216.470 118.470 L 209.439 125.500 206.251 131.581 C 204.497 134.926, 202.373 140.308, 201.531 143.542 L 200 149.420 200 158 L 200 166.580 201.489 172.297 C 202.308 175.441, 204.396 180.823, 206.128 184.257 L 209.278 190.500 216.389 197.611 L 223.500 204.722 229.552 207.775 C 232.881 209.455, 238.169 211.575, 241.304 212.486 L 247.003 214.143 256 214.143 L 264.997 214.143 270.696 212.486 C 273.831 211.575, 279.119 209.455, 282.448 207.775 L 288.500 204.722 295.611 197.611 L 302.722 190.500 305.872 184.257 C 307.604 180.823, 309.692 175.441, 310.511 172.297 L 312 166.580 312 158 L 312 149.420 310.469 143.542 C 309.627 140.308, 307.503 134.926, 305.749 131.581 L 302.561 125.500 295.530 118.470 L 288.500 111.439 282.419 108.251 C 279.074 106.497, 273.692 104.373, 270.458 103.531 L 264.580 102 255.540 102.066 L 246.500 102.132 241.112 103.581 M 249.713 135.400 C 243.511 137.097, 238.120 141.527, 235.088 147.418 L 232.667 152.123 232.671 157.811 L 232.675 163.500 234.671 168 C 235.768 170.475, 238.310 173.943, 240.319 175.707 L 243.972 178.914 249.167 180.457 C 252.025 181.306, 255.100 182, 256 182 C 256.900 182, 259.975 181.306, 262.833 180.457 L 268.028 178.914 271.565 175.809 C 275.731 172.151, 277.571 168.878, 278.970 162.636 L 279.993 158.067 278.905 152.991 L 277.816 147.914 274.649 143.762 L 271.482 139.609 266.991 137.373 C 264.521 136.144, 260.700 134.902, 258.500 134.614 L 254.500 134.091 249.713 135.400" stroke="none" fill="#ff7159" fill-rule="evenodd"/><path d="M 159.604 293.373 L 114.707 300.517 113.816 302.009 C 112.091 304.894, 74.097 390.430, 74.404 390.737 C 74.614 390.947, 196.063 329.702, 201.702 326.542 C 201.814 326.480, 203.430 317.332, 205.294 306.214 L 208.683 286 206.592 286.114 C 205.441 286.177, 184.297 289.443, 159.604 293.373 M 361.018 296.662 C 338.202 300.770, 319.460 304.215, 319.368 304.316 C 318.960 304.768, 328.326 355.583, 328.945 356.269 C 329.475 356.858, 410.477 309.857, 412.613 307.721 C 413.425 306.908, 404.764 288.996, 403.608 289.096 C 402.998 289.149, 383.833 292.554, 361.018 296.662" stroke="none" fill="#4cdbc4" fill-rule="evenodd"/><path d="M 208.500 289.250 C 205.438 306.089, 202.418 326.132, 202.901 326.397 C 204.910 327.501, 327.041 357.292, 327.534 356.799 C 328.044 356.289, 319.390 305.057, 318.673 304.340 C 317.998 303.664, 269.759 296.031, 269.026 296.484 C 268.556 296.775, 265.617 301.060, 262.496 306.006 C 259.375 310.953, 256.460 315, 256.019 315 C 255.578 315, 252.172 310.163, 248.450 304.250 C 244.728 298.337, 241.168 292.929, 240.538 292.232 C 239.588 291.180, 214.490 286, 210.347 286 L 209.091 286 208.500 289.250 M 439.946 433.750 L 436.500 437.500 440.250 434.054 C 442.313 432.158, 444 430.471, 444 430.304 C 444 429.540, 443.154 430.260, 439.946 433.750" stroke="none" fill="#2d9884" fill-rule="evenodd"/><path d="M 225 1.514 C 124.089 13.981, 39.979 84.874, 10.587 182.237 C 6.237 196.644, 3.267 210.865, 1.446 226 L 0.062 237.500 0.062 256 L 0.062 274.500 1.446 286 C 5.923 323.216, 19.599 362.164, 38.623 391.877 L 43.346 399.254 46.603 392.877 C 48.395 389.370, 60.841 365.148, 74.262 339.052 L 98.664 291.604 154.082 283.413 L 209.500 275.223 220.440 277.088 C 226.458 278.113, 231.559 278.775, 231.776 278.557 C 231.994 278.340, 229.048 272.838, 225.230 266.331 C 201.889 226.555, 186.956 194.496, 181.862 173.233 L 179.771 164.500 180.299 155 L 180.827 145.500 183.408 137.500 C 191.403 112.722, 209.680 94.788, 235.025 86.854 L 242.500 84.514 256 84.514 L 269.500 84.514 276.975 86.854 C 309.591 97.064, 331.928 126.161, 331.976 158.500 L 331.986 165.500 330.006 173.759 C 324.835 195.327, 308.840 229.139, 283.934 271.150 L 275.249 285.800 277.874 286.287 C 279.318 286.555, 288.600 287.998, 298.500 289.493 L 316.500 292.213 366.500 283.661 C 394 278.958, 416.787 275.423, 417.139 275.805 C 417.490 276.187, 430.687 301.025, 446.466 331 C 462.245 360.975, 475.503 385.860, 475.927 386.299 C 476.881 387.287, 489.501 362.726, 494.322 350.500 C 502.187 330.552, 509.157 302.552, 510.618 285.032 C 510.989 280.580, 511.677 276.700, 512.146 276.410 L 513 275.882 513 254.882 L 513 233.882 512.141 234.413 L 511.283 234.943 510.613 226.908 C 509.684 215.767, 505.727 196.524, 501.459 182.388 C 471.885 84.428, 387.632 13.673, 286 1.446 L 274.500 0.062 255 0.140 C 244.275 0.182, 230.775 0.801, 225 1.514 M 0.425 256 C 0.425 267.825, 0.569 272.663, 0.746 266.750 C 0.923 260.837, 0.923 251.162, 0.746 245.250 C 0.569 239.338, 0.425 244.175, 0.425 256" stroke="none" fill="#334f5d" fill-rule="evenodd"/></svg>