<?xml version="1.0" encoding="UTF-8" standalone="no"?>
<!-- Created with Inkscape (http://www.inkscape.org/) -->

<svg
   width="512"
   height="512"
   viewBox="0 0 512 512"
   version="1.1"
   id="svg1"
   sodipodi:docname="icon.svg"
   inkscape:version="1.4.3 (0d15f75042, 2025-12-25)"
   xml:space="preserve"
   xmlns:inkscape="http://www.inkscape.org/namespaces/inkscape"
   xmlns:sodipodi="http://sodipodi.sourceforge.net/DTD/sodipodi-0.dtd"
   xmlns="http://www.w3.org/2000/svg"
   xmlns:svg="http://www.w3.org/2000/svg"><sodipodi:namedview
     id="namedview1"
     pagecolor="#ffffff"
     bordercolor="#000000"
     borderopacity="0.25"
     inkscape:showpageshadow="2"
     inkscape:pageopacity="0.0"
     inkscape:pagecheckerboard="0"
     inkscape:deskcolor="#d1d1d1"
     inkscape:document-units="px"
     inkscape:zoom="1.1766699"
     inkscape:cx="318.27109"
     inkscape:cy="235.41012"
     inkscape:window-width="2560"
     inkscape:window-height="1052"
     inkscape:window-x="0"
     inkscape:window-y="0"
     inkscape:window-maximized="1"
     inkscape:current-layer="layer1" /><defs
     id="defs1"><inkscape:path-effect
       effect="fillet_chamfer"
       id="path-effect4"
       is_visible="true"
       lpeversion="1"
       nodesatellites_param="F,0,0,1,0,0,0,1 @ F,0,0,1,0,80.595169,0,1 @ F,0,0,1,0,104.00598,0,1 @ F,0,0,1,0,0,0,1"
       radius="0"
       unit="px"
       method="auto"
       mode="F"
       chamfer_steps="1"
       flexible="false"
       use_knot_distance="true"
       apply_no_radius="true"
       apply_with_radius="true"
       only_selected="false"
       hide_knots="false" /><inkscape:path-effect
       effect="fillet_chamfer"
       id="path-effect4-6"
       is_visible="true"
       lpeversion="1"
       nodesatellites_param="F,0,0,1,0,0,0,1 @ F,0,0,1,0,80.595169,0,1 @ F,0,0,1,0,104.00598,0,1 @ F,0,0,1,0,0,0,1"
       radius="0"
       unit="px"
       method="auto"
       mode="F"
       chamfer_steps="1"
       flexible="false"
       use_knot_distance="true"
       apply_no_radius="true"
       apply_with_radius="true"
       only_selected="false"
       hide_knots="false" /></defs><g
     inkscape:label="bg"
     inkscape:groupmode="layer"
     id="layer1"><circle
       style="fill:black;fill-rule:evenodd;stroke-width:12.848;stroke-linecap:round;stroke-linejoin:round;paint-order:stroke fill markers"
       id="path1"
       cx="256"
       cy="256"
       r="254.13423"
       inkscape:label="circle" /><path
       id="path16"
       style="baseline-shift:baseline;display:inline;overflow:visible;opacity:1;vector-effect:none;fill:white;fill-opacity:0.54751134;fill-rule:evenodd;stroke:white;stroke-linecap:round;stroke-linejoin:round;stroke-opacity:0.414027;paint-order:stroke fill markers;enable-background:accumulate;stop-color:black;stop-opacity:1"
       d="m 40.621094,31.441406 a 6.4232998,6.4232998 0 0 0 -1.652344,0.28125 6.4232998,6.4232998 0 0 0 -3.785156,3.136719 6.4232998,6.4232998 0 0 0 2.68164,8.679687 L 241.01562,150.82227 83.830078,236.89648 c -10.388009,5.68834 -15.550497,17.84659 -12.429687,29.27149 3.120809,11.4249 13.748649,19.26942 25.585937,18.88672 l 23.244142,-0.75196 52.62109,170.22071 -64.02929,33.14258 a 6.4232998,6.4232998 0 0 0 -2.75196,8.6582 6.4232998,6.4232998 0 0 0 8.65625,2.75195 l 145.23438,-75.17773 a 6.4232998,6.4232998 0 0 0 0.0312,-0.0156 6.4232998,6.4232998 0 0 0 0.18945,-0.0976 l 0.0273,-0.0137 a 6.4232998,6.4232998 0 0 0 0.004,-0.002 L 465.85352,317.32617 c 12.4039,-6.42044 18.74941,-20.66029 15.22656,-34.17578 -3.52285,-13.51548 -16.01289,-22.8478 -29.97266,-22.39648 l -108.4043,3.5039 35.5918,-173.958982 76.69531,-41.998047 a 6.4232998,6.4232998 0 0 0 2.55079,-8.71875 6.4232998,6.4232998 0 0 0 -3.83204,-3.080078 6.4232998,6.4232998 0 0 0 -1.6582,-0.255859 6.4232998,6.4232998 0 0 0 -3.23047,0.787109 l -79.19726,43.367188 a 6.4232998,6.4232998 0 0 1 0.17773,-0.07813 6.4232998,6.4232998 0 0 0 -0.39844,0.199218 6.4232998,6.4232998 0 0 0 -0.006,0.0039 L 254.52344,143.42773 43.863281,32.179688 A 6.4232998,6.4232998 0 0 0 40.621094,31.441406 Z M 371.39453,79.789062 a 6.4232998,6.4232998 0 0 0 -0.27344,0.06445 6.4232998,6.4232998 0 0 1 0.27344,-0.06445 z m -0.80859,0.212891 a 6.4232998,6.4232998 0 0 0 -0.30078,0.109375 6.4232998,6.4232998 0 0 1 0.30078,-0.109375 z m -7.0586,18.382813 -34.02539,166.300784 -115.69922,3.74023 h -0.0137 a 6.4232998,6.4232998 0 0 0 -0.0879,0.002 6.4232998,6.4232998 0 0 0 -0.10351,0.004 l -88.84961,2.87305 a 6.4232998,6.4232998 0 0 0 -0.0723,0.002 l -28.105468,0.9082 c -5.963206,0.19279 -11.205189,-3.67617 -12.777343,-9.43164 -1.572154,-5.75546 0.975871,-11.75356 6.208984,-14.61914 z M 214.07617,268.43945 a 6.4232998,6.4232998 0 0 1 0.55274,0.0273 6.4232998,6.4232998 0 0 0 -0.55274,-0.0273 z m 237.44727,5.1543 c 8.03266,-0.2597 15.0979,5.01986 17.125,12.79687 2.0271,7.77702 -1.56183,15.83293 -8.69922,19.52735 l -198.89649,102.95117 -38.58398,-127.87109 112.375,-3.63282 a 6.4232998,6.4232998 0 0 0 0.008,0 l 0.041,-0.002 a 6.4232998,6.4232998 0 0 0 0.18945,-0.006 l 0.0371,-0.002 z m -111.95313,1.625 a 6.4232998,6.4232998 0 0 1 -0.33008,0.32422 6.4232998,6.4232998 0 0 0 0.33008,-0.32422 z m -3.63672,2.04102 a 6.4232998,6.4232998 0 0 1 -0.22461,0.0273 6.4232998,6.4232998 0 0 0 0.22461,-0.0273 z m -1.75586,0.0762 a 6.4232998,6.4232998 0 0 0 0.17188,0.008 6.4232998,6.4232998 0 0 1 -0.17188,-0.008 z m -124.99804,4.09179 40.26758,133.44922 -65.00391,33.64649 -50.90039,-164.65039 z m 53.01367,140.66016 a 6.4232998,6.4232998 0 0 1 -0.21484,0.24219 6.4232998,6.4232998 0 0 0 0.21484,-0.24219 z"
       inkscape:label="streets" /></g><g
     inkscape:groupmode="layer"
     id="layer2"
     inkscape:label="yellow"
     style="display:inline"><path
       style="fill:#ffe600;fill-opacity:0.291855;fill-rule:evenodd;stroke:#ffe600;stroke-width:12.8466;stroke-linecap:round;stroke-linejoin:round;stroke-dasharray:none;stroke-opacity:1;paint-order:stroke fill markers"
       d="M 168.26803,84.063632 68.512166,396.5519 385.207,434.41105 442.89714,125.52842 Z"
       id="path9" /><circle
       style="fill:#ffe600;fill-opacity:1;fill-rule:evenodd;stroke:#ffe600;stroke-width:12.8466;stroke-linecap:round;stroke-linejoin:round;stroke-dasharray:none;stroke-opacity:1;paint-order:stroke fill markers"
       id="path10"
       cx="167.54866"
       cy="85.757706"
       r="19.003361" /><circle
       style="fill:#ffe600;fill-opacity:1;fill-rule:evenodd;stroke:#ffe600;stroke-width:12.8466;stroke-linecap:round;stroke-linejoin:round;stroke-dasharray:none;stroke-opacity:1;paint-order:stroke fill markers"
       id="path10-3"
       cx="439.49344"
       cy="-124.74907"
       r="19.003361"
       transform="scale(1,-1)" /><circle
       style="fill:#ffe600;fill-opacity:1;fill-rule:evenodd;stroke:#ffe600;stroke-width:12.8466;stroke-linecap:round;stroke-linejoin:round;stroke-dasharray:none;stroke-opacity:1;paint-order:stroke fill markers"
       id="path10-1"
       cx="383.98148"
       cy="431.9928"
       r="19.003361" /><circle
       style="fill:#ffe600;fill-opacity:1;fill-rule:evenodd;stroke:#ffe600;stroke-width:12.8466;stroke-linecap:round;stroke-linejoin:round;stroke-dasharray:none;stroke-opacity:1;paint-order:stroke fill markers"
       id="path10-36"
       cx="76.607208"
       cy="390.1973"
       r="19.003361" /></g><g
     inkscape:groupmode="layer"
     id="g43"
     inkscape:label="blue"
     style="display:inline"><path
       id="path40"
       style="fill:#3b82f6;fill-opacity:0.29019609;fill-rule:evenodd;stroke:#3b82f6;stroke-width:12.8466;stroke-linecap:round;stroke-linejoin:round;stroke-dasharray:none;stroke-opacity:1;paint-order:stroke fill markers"
       d="M 364.00586 113.61719 L 172.95508 409.03711 L 385.20703 434.41016 L 442.89648 125.5293 L 364.00586 113.61719 z " /><circle
       style="fill:#ffe600;fill-opacity:1;fill-rule:evenodd;stroke:#ffe600;stroke-width:12.8466;stroke-linecap:round;stroke-linejoin:round;stroke-dasharray:none;stroke-opacity:1;paint-order:stroke fill markers"
       id="circle40"
       cx="167.54866"
       cy="85.757706"
       r="19.003361" /><circle
       style="fill:#3b82f6;fill-opacity:1;fill-rule:evenodd;stroke:#3b82f6;stroke-width:12.8466;stroke-linecap:round;stroke-linejoin:round;stroke-dasharray:none;stroke-opacity:1;paint-order:stroke fill markers"
       id="circle41"
       cx="439.49344"
       cy="-124.74907"
       r="19.003361"
       transform="scale(1,-1)" /><circle
       style="fill:#3b82f6;fill-opacity:1;fill-rule:evenodd;stroke:#3b82f6;stroke-width:12.8466;stroke-linecap:round;stroke-linejoin:round;stroke-dasharray:none;stroke-opacity:1;paint-order:stroke fill markers"
       id="circle42"
       cx="383.98148"
       cy="431.9928"
       r="19.003361" /><circle
       style="fill:#ffe600;fill-opacity:1;fill-rule:evenodd;stroke:#ffe600;stroke-width:12.8466;stroke-linecap:round;stroke-linejoin:round;stroke-dasharray:none;stroke-opacity:1;paint-order:stroke fill markers"
       id="circle43"
       cx="76.607208"
       cy="390.1973"
       r="19.003361" /></g><g
     inkscape:groupmode="layer"
     id="layer3"
     inkscape:label="cutter" /></svg>
