<?xml version="1.0" encoding="UTF-8" standalone="no"?>
<!-- Created with Inkscape (http://www.inkscape.org/) -->

<svg
   width="512"
   height="512"
   viewBox="0 0 512 512"
   version="1.1"
   id="svg1"
   sodipodi:docname="icon.svg"
   inkscape:version="1.4.3 (0d15f75042, 2025-12-25)"
   xml:space="preserve"
   inkscape:export-filename="icon.png"
   inkscape:export-xdpi="96"
   inkscape:export-ydpi="96"
   xmlns:inkscape="http://www.inkscape.org/namespaces/inkscape"
   xmlns:sodipodi="http://sodipodi.sourceforge.net/DTD/sodipodi-0.dtd"
   xmlns="http://www.w3.org/2000/svg"
   xmlns:svg="http://www.w3.org/2000/svg"><sodipodi:namedview
     id="namedview1"
     pagecolor="#020610"
     bordercolor="#000000"
     borderopacity="0.25"
     inkscape:showpageshadow="2"
     inkscape:pageopacity="0.0"
     inkscape:pagecheckerboard="0"
     inkscape:deskcolor="#d1d1d1"
     inkscape:document-units="px"
     inkscape:zoom="1.1766699"
     inkscape:cx="464.44632"
     inkscape:cy="266.00493"
     inkscape:window-width="2560"
     inkscape:window-height="1052"
     inkscape:window-x="0"
     inkscape:window-y="0"
     inkscape:window-maximized="1"
     inkscape:current-layer="layer4" /><defs
     id="defs1"><inkscape:path-effect
       effect="fillet_chamfer"
       id="path-effect4"
       is_visible="true"
       lpeversion="1"
       nodesatellites_param="F,0,0,1,0,0,0,1 @ F,0,0,1,0,80.595169,0,1 @ F,0,0,1,0,104.00598,0,1 @ F,0,0,1,0,0,0,1"
       radius="0"
       unit="px"
       method="auto"
       mode="F"
       chamfer_steps="1"
       flexible="false"
       use_knot_distance="true"
       apply_no_radius="true"
       apply_with_radius="true"
       only_selected="false"
       hide_knots="false" /><inkscape:path-effect
       effect="fillet_chamfer"
       id="path-effect4-6"
       is_visible="true"
       lpeversion="1"
       nodesatellites_param="F,0,0,1,0,0,0,1 @ F,0,0,1,0,80.595169,0,1 @ F,0,0,1,0,104.00598,0,1 @ F,0,0,1,0,0,0,1"
       radius="0"
       unit="px"
       method="auto"
       mode="F"
       chamfer_steps="1"
       flexible="false"
       use_knot_distance="true"
       apply_no_radius="true"
       apply_with_radius="true"
       only_selected="false"
       hide_knots="false" /></defs><g
     inkscape:label="bg"
     inkscape:groupmode="layer"
     id="layer1"
     style="display:none"><ellipse
       style="fill:white;fill-opacity:1;fill-rule:evenodd;stroke:none;stroke-width:11.1973;stroke-linecap:round;stroke-linejoin:round;stroke-dasharray:none;stroke-opacity:1;paint-order:stroke fill markers"
       id="path103"
       cy="255.10684"
       cx="255.93321"
       rx="254.0677"
       ry="253.24161" /><path
       d="m 209.17969,281.42773 -75.63672,2.44532 50.90039,164.65039 65.00391,-33.64649 z"
       style="fill-rule:evenodd;stroke-width:12.848;stroke-linecap:round;stroke-linejoin:round;paint-order:stroke fill markers"
       id="path102" /><path
       d="m 451.52344,273.59375 c 8.03266,-0.2597 15.0979,5.01986 17.125,12.79687 2.0271,7.77702 -1.56183,15.83293 -8.69922,19.52735 l -198.89649,102.95117 -38.58398,-127.87109 112.375,-3.63282 a 6.4232998,6.4232998 0 0 0 0.008,0 l 0.041,-0.002 a 6.4232998,6.4232998 0 0 0 0.18945,-0.006 l 0.0371,-0.002 z"
       style="fill:black;fill-opacity:1;fill-rule:evenodd;stroke-width:12.8466;stroke-linecap:round;stroke-linejoin:round;stroke-dasharray:none;paint-order:stroke fill markers"
       id="path99" /><path
       d="M 363.52734,98.384766 90.001953,248.16406 c -5.233113,2.86558 -7.781138,8.86368 -6.208984,14.61914 1.572154,5.75547 6.814137,9.62443 12.777343,9.43164 l 28.105468,-0.9082 a 6.4232998,6.4232998 0 0 1 0.0723,-0.002 l 88.84961,-2.87305 a 6.4232998,6.4232998 0 0 1 0.10351,-0.004 6.4232998,6.4232998 0 0 1 0.0879,-0.002 h 0.0137 l 115.69922,-3.74023 z"
       style="fill-rule:evenodd;stroke-width:12.848;stroke-linecap:round;stroke-linejoin:round;paint-order:stroke fill markers"
       id="path98" /><path
       d="m 130.00391,476.70117 42.84765,-22.17773 -52.62109,-170.22071 -23.244142,0.75196 c -11.837288,0.3827 -22.465128,-7.46182 -25.585937,-18.88672 -3.12081,-11.4249 2.041678,-23.58315 12.429687,-29.27149 L 241.01562,150.82227 84.701172,68.273437 A 254.13423,254.13423 0 0 0 1.8652344,256 254.13423,254.13423 0 0 0 130.00391,476.70117 Z"
       style="fill-rule:evenodd;stroke-width:12.848;stroke-linecap:round;stroke-linejoin:round;paint-order:stroke fill markers"
       id="path97" /><path
       d="m 423.96875,65.289062 -45.67383,25.009766 -35.5918,173.958982 108.4043,-3.5039 c 13.95977,-0.45132 26.44981,8.881 29.97266,22.39648 3.52285,13.51549 -2.82266,27.75534 -15.22656,34.17578 L 260.21289,423.76953 a 6.4232998,6.4232998 0 0 1 -0.004,0.002 l -0.0273,0.0137 a 6.4232998,6.4232998 0 0 1 -0.18945,0.0976 6.4232998,6.4232998 0 0 1 -0.0312,0.0156 L 143.80273,484.02539 A 254.13423,254.13423 0 0 0 256,510.13477 254.13423,254.13423 0 0 0 510.13477,256 254.13423,254.13423 0 0 0 423.96875,65.289062 Z"
       style="fill-rule:evenodd;stroke-width:12.848;stroke-linecap:round;stroke-linejoin:round;paint-order:stroke fill markers"
       id="path96" /><path
       d="M 256,1.8652344 A 254.13423,254.13423 0 0 0 95.138672,59.257812 L 254.52344,143.42773 369.39648,80.525391 a 6.4232998,6.4232998 0 0 1 0.006,-0.0039 6.4232998,6.4232998 0 0 1 0.39844,-0.199218 6.4232998,6.4232998 0 0 0 -0.17773,0.07813 L 413.36328,56.449219 A 254.13423,254.13423 0 0 0 256,1.8652344 Z"
       style="fill-rule:evenodd;stroke-width:12.848;stroke-linecap:round;stroke-linejoin:round;paint-order:stroke fill markers"
       id="path94" /></g><g
     inkscape:groupmode="layer"
     id="layer2"
     inkscape:label="yellow"
     style="display:none"
     sodipodi:insensitive="true"><path
       style="display:inline;fill:#ffe600;fill-opacity:0.291855;fill-rule:evenodd;stroke:#ffe600;stroke-width:12.8466;stroke-linecap:round;stroke-linejoin:round;stroke-dasharray:none;stroke-opacity:1;paint-order:stroke fill markers"
       d="M 168.26803,84.063632 68.512166,396.5519 385.207,434.41105 442.89714,125.52842 Z"
       id="path9" /><circle
       style="fill:#ffe600;fill-opacity:1;fill-rule:evenodd;stroke:#ffe600;stroke-width:12.8466;stroke-linecap:round;stroke-linejoin:round;stroke-dasharray:none;stroke-opacity:1;paint-order:stroke fill markers"
       id="path10"
       cx="167.54866"
       cy="85.757706"
       r="19.003361" /><circle
       style="fill:#ffe600;fill-opacity:1;fill-rule:evenodd;stroke:#ffe600;stroke-width:12.8466;stroke-linecap:round;stroke-linejoin:round;stroke-dasharray:none;stroke-opacity:1;paint-order:stroke fill markers"
       id="path10-3"
       cx="439.49344"
       cy="-124.74907"
       r="19.003361"
       transform="scale(1,-1)" /><circle
       style="fill:#ffe600;fill-opacity:1;fill-rule:evenodd;stroke:#ffe600;stroke-width:12.8466;stroke-linecap:round;stroke-linejoin:round;stroke-dasharray:none;stroke-opacity:1;paint-order:stroke fill markers"
       id="path10-1"
       cx="383.98148"
       cy="431.9928"
       r="19.003361" /><circle
       style="fill:#ffe600;fill-opacity:1;fill-rule:evenodd;stroke:#ffe600;stroke-width:12.8466;stroke-linecap:round;stroke-linejoin:round;stroke-dasharray:none;stroke-opacity:1;paint-order:stroke fill markers"
       id="path10-36"
       cx="76.607208"
       cy="390.1973"
       r="19.003361" /></g><g
     inkscape:groupmode="layer"
     id="g43"
     inkscape:label="blue"
     style="display:none"
     sodipodi:insensitive="true"><path
       id="path40"
       style="fill:#3b82f6;fill-opacity:0.290196;fill-rule:evenodd;stroke:#3b82f6;stroke-width:12.8466;stroke-linecap:round;stroke-linejoin:round;stroke-dasharray:none;stroke-opacity:1;paint-order:stroke fill markers"
       d="M 364.00586,113.61719 172.95508,409.03711 385.20703,434.41016 442.89648,125.5293 Z" /><circle
       style="fill:#ffe600;fill-opacity:1;fill-rule:evenodd;stroke:#ffe600;stroke-width:12.8466;stroke-linecap:round;stroke-linejoin:round;stroke-dasharray:none;stroke-opacity:1;paint-order:stroke fill markers"
       id="circle40"
       cx="167.54866"
       cy="85.757706"
       r="19.003361" /><circle
       style="fill:#3b82f6;fill-opacity:1;fill-rule:evenodd;stroke:#3b82f6;stroke-width:12.8466;stroke-linecap:round;stroke-linejoin:round;stroke-dasharray:none;stroke-opacity:1;paint-order:stroke fill markers"
       id="circle41"
       cx="439.49344"
       cy="-124.74907"
       r="19.003361"
       transform="scale(1,-1)" /><circle
       style="fill:#3b82f6;fill-opacity:1;fill-rule:evenodd;stroke:#3b82f6;stroke-width:12.8466;stroke-linecap:round;stroke-linejoin:round;stroke-dasharray:none;stroke-opacity:1;paint-order:stroke fill markers"
       id="circle42"
       cx="383.98148"
       cy="431.9928"
       r="19.003361" /><circle
       style="display:inline;fill:#ffe600;fill-opacity:1;fill-rule:evenodd;stroke:#ffe600;stroke-width:12.8466;stroke-linecap:round;stroke-linejoin:round;stroke-dasharray:none;stroke-opacity:1;paint-order:stroke fill markers"
       id="circle43"
       cx="76.607208"
       cy="390.1973"
       r="19.003361" /></g><g
     inkscape:groupmode="layer"
     id="layer3"
     inkscape:label="cutter"
     sodipodi:insensitive="true" /><g
     inkscape:groupmode="layer"
     id="layer4"
     inkscape:label="cutter 1"
     transform="matrix(1,0.18070498,0,1,22.517132,-57.546707)"
     style="display:inline"><rect
       style="display:none;fill:#020610;fill-opacity:1;fill-rule:evenodd;stroke:none;stroke-width:12.9502;stroke-linecap:round;stroke-linejoin:round;stroke-opacity:1;paint-order:stroke fill markers"
       id="rect2"
       width="620.94299"
       height="613.59607"
       x="-46.250633"
       y="-614.70819"
       transform="matrix(0.98406214,-0.17782493,0,-1,0,0)"
       ry="54.084507" /><rect
       style="display:none;fill:#ffe600;fill-opacity:0.5;fill-rule:evenodd;stroke:#ffe600;stroke-width:15.6432;stroke-linecap:round;stroke-linejoin:round;stroke-opacity:1;paint-order:stroke fill markers"
       id="rect1-3"
       width="299.7225"
       height="372.23697"
       x="149.59717"
       y="-414.6301"
       ry="66.170433"
       transform="scale(1,-1)" /><rect
       style="display:inline;fill:#bfb340;fill-opacity:1;fill-rule:evenodd;stroke:#ffe600;stroke-width:12.8466;stroke-linecap:round;stroke-linejoin:round;stroke-opacity:1;paint-order:stroke fill markers"
       id="rect1-35"
       width="247.30811"
       height="304.24847"
       x="149.11958"
       y="85.487816"
       ry="54.084507" /><rect
       style="display:inline;fill:#658ccc;fill-opacity:1;fill-rule:evenodd;stroke:#3b82f6;stroke-width:12.8466;stroke-linecap:round;stroke-linejoin:round;stroke-opacity:1;paint-order:stroke fill markers"
       id="rect1"
       width="247.30811"
       height="304.24847"
       x="70.538048"
       y="152.97409"
       ry="54.084507" /></g></svg>
